<mxfile host="Electron" modified="2023-11-13T19:37:54.018Z" agent="Mozilla/5.0 (Windows NT 10.0; Win64; x64) AppleWebKit/537.36 (KHTML, like Gecko) draw.io/22.0.2 Chrome/114.0.5735.289 Electron/25.8.4 Safari/537.36" etag="XZt2J5Jl42IQciWWPCZ1" version="22.0.2" type="device">
  <diagram id="vtW4aQ1F6CdPE-jkXcMg" name="Page-1">
    <mxGraphModel dx="1296" dy="954" grid="1" gridSize="10" guides="1" tooltips="1" connect="1" arrows="1" fold="1" page="1" pageScale="1" pageWidth="1100" pageHeight="850" math="0" shadow="0">
      <root>
        <mxCell id="0" />
        <mxCell id="1" parent="0" />
        <mxCell id="2" style="edgeStyle=none;html=1;entryX=0;entryY=0.5;entryDx=0;entryDy=0;" parent="1" source="3" target="5" edge="1">
          <mxGeometry relative="1" as="geometry" />
        </mxCell>
        <mxCell id="3" value="&lt;p style=&quot;line-height: 90%;&quot;&gt;&lt;font style=&quot;font-size: 10px;&quot;&gt;Start&lt;/font&gt;&lt;/p&gt;" style="ellipse;whiteSpace=wrap;html=1;aspect=fixed;" parent="1" vertex="1">
          <mxGeometry x="120" y="118.75" width="40" height="40" as="geometry" />
        </mxCell>
        <mxCell id="idAQzxs6uJZ918McuvKW-54" value="" style="edgeStyle=orthogonalEdgeStyle;rounded=0;orthogonalLoop=1;jettySize=auto;html=1;" edge="1" parent="1" source="5" target="idAQzxs6uJZ918McuvKW-53">
          <mxGeometry relative="1" as="geometry" />
        </mxCell>
        <mxCell id="idAQzxs6uJZ918McuvKW-55" value="Yes" style="edgeLabel;html=1;align=center;verticalAlign=middle;resizable=0;points=[];" vertex="1" connectable="0" parent="idAQzxs6uJZ918McuvKW-54">
          <mxGeometry x="-0.16" y="1" relative="1" as="geometry">
            <mxPoint as="offset" />
          </mxGeometry>
        </mxCell>
        <mxCell id="idAQzxs6uJZ918McuvKW-62" value="" style="edgeStyle=orthogonalEdgeStyle;rounded=0;orthogonalLoop=1;jettySize=auto;html=1;" edge="1" parent="1" source="5" target="idAQzxs6uJZ918McuvKW-61">
          <mxGeometry relative="1" as="geometry" />
        </mxCell>
        <mxCell id="idAQzxs6uJZ918McuvKW-64" value="No" style="edgeLabel;html=1;align=center;verticalAlign=middle;resizable=0;points=[];" vertex="1" connectable="0" parent="idAQzxs6uJZ918McuvKW-62">
          <mxGeometry x="-0.7189" relative="1" as="geometry">
            <mxPoint as="offset" />
          </mxGeometry>
        </mxCell>
        <mxCell id="5" value="&lt;p style=&quot;line-height: 100%; font-size: 7px;&quot;&gt;&lt;font style=&quot;font-size: 7px;&quot;&gt;Has&lt;br&gt;location&lt;/font&gt;&lt;/p&gt;" style="rhombus;whiteSpace=wrap;html=1;" parent="1" vertex="1">
          <mxGeometry x="270" y="110" width="60" height="57.5" as="geometry" />
        </mxCell>
        <mxCell id="8" value="&lt;font style=&quot;font-size: 10px;&quot;&gt;Finish&lt;/font&gt;" style="ellipse;whiteSpace=wrap;html=1;aspect=fixed;fontSize=7;" parent="1" vertex="1">
          <mxGeometry x="900" y="440" width="40" height="40" as="geometry" />
        </mxCell>
        <mxCell id="idAQzxs6uJZ918McuvKW-58" style="edgeStyle=orthogonalEdgeStyle;rounded=0;orthogonalLoop=1;jettySize=auto;html=1;exitX=1;exitY=0.5;exitDx=0;exitDy=0;" edge="1" parent="1" source="idAQzxs6uJZ918McuvKW-49" target="idAQzxs6uJZ918McuvKW-50">
          <mxGeometry relative="1" as="geometry" />
        </mxCell>
        <mxCell id="idAQzxs6uJZ918McuvKW-49" value="&lt;font style=&quot;font-size: 10px;&quot;&gt;Proceed to&lt;br&gt;Event Info Form&lt;br&gt;&lt;/font&gt;" style="rounded=1;whiteSpace=wrap;html=1;" vertex="1" parent="1">
          <mxGeometry x="620" y="118.75" width="120" height="40" as="geometry" />
        </mxCell>
        <mxCell id="idAQzxs6uJZ918McuvKW-60" style="edgeStyle=orthogonalEdgeStyle;rounded=0;orthogonalLoop=1;jettySize=auto;html=1;exitX=0.5;exitY=1;exitDx=0;exitDy=0;" edge="1" parent="1" source="idAQzxs6uJZ918McuvKW-50" target="idAQzxs6uJZ918McuvKW-59">
          <mxGeometry relative="1" as="geometry" />
        </mxCell>
        <mxCell id="idAQzxs6uJZ918McuvKW-50" value="&lt;font style=&quot;font-size: 10px;&quot;&gt;Complete&lt;br&gt;Event Info Form&lt;br&gt;&lt;/font&gt;" style="rounded=1;whiteSpace=wrap;html=1;" vertex="1" parent="1">
          <mxGeometry x="860" y="118.75" width="120" height="40" as="geometry" />
        </mxCell>
        <mxCell id="idAQzxs6uJZ918McuvKW-56" value="" style="edgeStyle=orthogonalEdgeStyle;rounded=0;orthogonalLoop=1;jettySize=auto;html=1;" edge="1" parent="1" source="idAQzxs6uJZ918McuvKW-53" target="idAQzxs6uJZ918McuvKW-49">
          <mxGeometry relative="1" as="geometry" />
        </mxCell>
        <mxCell id="idAQzxs6uJZ918McuvKW-57" value="Yes" style="edgeLabel;html=1;align=center;verticalAlign=middle;resizable=0;points=[];" vertex="1" connectable="0" parent="idAQzxs6uJZ918McuvKW-56">
          <mxGeometry x="-0.1813" relative="1" as="geometry">
            <mxPoint as="offset" />
          </mxGeometry>
        </mxCell>
        <mxCell id="idAQzxs6uJZ918McuvKW-63" style="edgeStyle=orthogonalEdgeStyle;rounded=0;orthogonalLoop=1;jettySize=auto;html=1;exitX=0.5;exitY=1;exitDx=0;exitDy=0;entryX=0.5;entryY=0;entryDx=0;entryDy=0;" edge="1" parent="1" source="idAQzxs6uJZ918McuvKW-53" target="idAQzxs6uJZ918McuvKW-61">
          <mxGeometry relative="1" as="geometry" />
        </mxCell>
        <mxCell id="idAQzxs6uJZ918McuvKW-65" value="No" style="edgeLabel;html=1;align=center;verticalAlign=middle;resizable=0;points=[];" vertex="1" connectable="0" parent="idAQzxs6uJZ918McuvKW-63">
          <mxGeometry x="-0.7359" y="2" relative="1" as="geometry">
            <mxPoint as="offset" />
          </mxGeometry>
        </mxCell>
        <mxCell id="idAQzxs6uJZ918McuvKW-53" value="&lt;p style=&quot;line-height: 10%; font-size: 7px;&quot;&gt;Is valid&lt;/p&gt;&lt;p style=&quot;line-height: 10%; font-size: 7px;&quot;&gt;location&lt;/p&gt;" style="rhombus;whiteSpace=wrap;html=1;" vertex="1" parent="1">
          <mxGeometry x="450" y="110" width="60" height="57.5" as="geometry" />
        </mxCell>
        <mxCell id="idAQzxs6uJZ918McuvKW-67" style="edgeStyle=orthogonalEdgeStyle;rounded=0;orthogonalLoop=1;jettySize=auto;html=1;exitX=0.5;exitY=1;exitDx=0;exitDy=0;" edge="1" parent="1" source="idAQzxs6uJZ918McuvKW-59" target="8">
          <mxGeometry relative="1" as="geometry" />
        </mxCell>
        <mxCell id="idAQzxs6uJZ918McuvKW-59" value="&lt;font style=&quot;font-size: 10px;&quot;&gt;Proceed to&lt;br&gt;Event View&lt;br&gt;&lt;/font&gt;" style="rounded=1;whiteSpace=wrap;html=1;" vertex="1" parent="1">
          <mxGeometry x="860" y="280" width="120" height="40" as="geometry" />
        </mxCell>
        <mxCell id="idAQzxs6uJZ918McuvKW-68" style="edgeStyle=orthogonalEdgeStyle;rounded=0;orthogonalLoop=1;jettySize=auto;html=1;exitX=0;exitY=0.5;exitDx=0;exitDy=0;entryX=0.5;entryY=0;entryDx=0;entryDy=0;" edge="1" parent="1" source="idAQzxs6uJZ918McuvKW-61" target="idAQzxs6uJZ918McuvKW-53">
          <mxGeometry relative="1" as="geometry">
            <Array as="points">
              <mxPoint x="80" y="300" />
              <mxPoint x="80" y="40" />
              <mxPoint x="480" y="40" />
            </Array>
          </mxGeometry>
        </mxCell>
        <mxCell id="idAQzxs6uJZ918McuvKW-61" value="&lt;font style=&quot;font-size: 10px;&quot;&gt;Find Location&lt;br&gt;&lt;/font&gt;" style="rounded=1;whiteSpace=wrap;html=1;" vertex="1" parent="1">
          <mxGeometry x="320" y="280" width="120" height="40" as="geometry" />
        </mxCell>
      </root>
    </mxGraphModel>
  </diagram>
</mxfile>
